<svg width="16" height="16" viewBox="0 0 16 16" fill="none" xmlns="http://www.w3.org/2000/svg">
<path fill-rule="evenodd" clip-rule="evenodd" d="M3.80812 6.19526C3.54777 5.93491 3.12566 5.93491 2.86531 6.19526C2.60496 6.45561 2.60496 6.87772 2.86531 7.13807L7.52565 11.7984C7.52771 11.8005 7.52979 11.8026 7.53189 11.8047C7.66259 11.9354 7.83404 12.0005 8.00534 12C8.1753 11.9995 8.34511 11.9344 8.47478 11.8047C8.47687 11.8027 8.47894 11.8006 8.48099 11.7985L13.1414 7.13807C13.4017 6.87772 13.4017 6.45561 13.1414 6.19526C12.881 5.93491 12.4589 5.93491 12.1986 6.19526L8.00334 10.3905L3.80812 6.19526Z" fill="#2D3440"/>
</svg>
