<svg xmlns="http://www.w3.org/2000/svg" width="49" height="48" fill="none" viewBox="0 0 49 48"><circle cx="24.5" cy="24" r="23" stroke="#2D3440" stroke-width="2"/><g clip-path="url(#a)"><path fill="#2D3440" d="M35.25 18.29a12.1 12.1 0 0 0 .46-9.56 1 1 0 0 0-.34-.47 1.06 1.06 0 0 0-1.57.3c-1.32 2.28-4.16 5.96-6.24 6.13h-.1c-.95-.18-1.92-.28-2.9-.3-.98.02-1.95.12-2.91.3h-.07c-2.09-.16-4.97-3.84-6.3-6.13-.1-.18-.24-.33-.42-.43a1.07 1.07 0 0 0-1.18.1 1 1 0 0 0-.33.5 12 12 0 0 0 .4 9.55c-1.81.22-4.1.78-4.94 2.2a2.15 2.15 0 0 0 0 2.22c.24.4.6.74 1.02.97.43.22.92.32 1.4.28a7.57 7.57 0 0 0 2.52-.48c0 .54.04 1.09.14 1.62a34.44 34.44 0 0 0 1.82 5.24c.2.47.41 1 .53 1.32-.34.81-.61 1.65-.8 2.5a4.32 4.32 0 0 0 1.16 3.33c1.51 1.67 4.16 2.52 7.93 2.52 3.77 0 6.43-.85 7.93-2.52a4.39 4.39 0 0 0 1.17-3.33c-.2-.85-.46-1.69-.8-2.5l.53-1.32c.75-1.7 1.36-3.45 1.82-5.24.1-.53.15-1.08.14-1.62.78.3 1.6.46 2.44.48a2.54 2.54 0 0 0 2.43-1.26 2.15 2.15 0 0 0 0-2.2c-.82-1.38-3.12-1.98-4.94-2.2Zm-.99-6.69c.38 2.1 0 4.27-1.04 6.15a7.49 7.49 0 0 0-2.82-2.14c1.5-1.13 2.8-2.48 3.86-4Zm-19.47 0a16.96 16.96 0 0 0 3.85 4.03c-.73.3-1.4.74-1.96 1.27-.3.27-.58.57-.85.87a9.28 9.28 0 0 1-1.04-6.17Zm-4.1 10.13c-.1-.16-.06-.21 0-.25.24-.4 1.45-1 3.76-1.24-.12.3-.22.58-.31.89-1.36.67-3.17 1.1-3.45.6Zm22.44 3.02a33.3 33.3 0 0 1-1.69 4.84c-.27.62-.51 1.25-.72 1.88l-.06.32.11.28c.33.77.6 1.56.8 2.36a2.33 2.33 0 0 1-.67 1.73C30.15 37 28.44 38 24.54 38c-3.9 0-5.6-1.01-6.36-1.83-.45-.47-.69-1.09-.67-1.73.2-.8.48-1.6.8-2.36l.12-.28-.07-.32c-.2-.64-.43-1.27-.7-1.89-.7-1.58-1.28-3.2-1.71-4.87a7 7 0 0 1 2.2-6.4c1.57-1.53 5.13-1.88 6.37-1.89 1.24 0 4.73.35 6.39 1.9.88.81 1.55 1.82 1.93 2.93.4 1.11.49 2.3.29 3.46v.04Zm5.2-3.02c-.27.48-2.08.07-3.37-.6-.09-.3-.19-.59-.3-.89 2.29.23 3.48.85 3.71 1.24.05.04.07.09-.02.25h-.02Z"/></g><defs><clipPath id="a"><path fill="#fff" d="M8.5 8h32v32h-32z"/></clipPath></defs></svg>