<svg xmlns="http://www.w3.org/2000/svg" width="48" height="48" fill="none" viewBox="0 0 48 48"><circle cx="24" cy="24" r="23" stroke="#2D3440" stroke-width="2"/><path fill="#2D3440" d="M24 8a8 8 0 0 0-7.94 7.06H16v15.89h16v-15.9h-.06A8 8 0 0 0 24 8Zm6.12 21.06H17.88V20.4a1.68 1.68 0 0 0 1.45.6c1.22 0 2-.68 2-1.54v-.81a.8.8 0 1 1 1.62 0v3.1a1.76 1.76 0 0 0 2 1.71 1.75 1.75 0 0 0 1.99-1.64v-2.08a1.27 1.27 0 1 1 2.53 0v.08a1.06 1.06 0 0 0 .63.84v8.47l.02-.06ZM22.59 38.59a1.41 1.41 0 0 0 2.82 0v-6.7H22.6v6.7Z"/></svg>
