<svg width="14" height="14" viewBox="0 0 14 14" fill="none" xmlns="http://www.w3.org/2000/svg">
<g clip-path="url(#clip0_22979_38)">
<path fill-rule="evenodd" clip-rule="evenodd" d="M7.00026 2.12496C4.30774 2.12496 2.12502 4.30768 2.12502 7.0002C2.12502 9.69272 4.30774 11.8754 7.00026 11.8754C9.69278 11.8754 11.8755 9.69272 11.8755 7.0002C11.8755 4.30768 9.69278 2.12496 7.00026 2.12496ZM0.791687 7.0002C0.791687 3.5713 3.57136 0.791626 7.00026 0.791626C10.4292 0.791626 13.2088 3.5713 13.2088 7.0002C13.2088 10.4291 10.4292 13.2088 7.00026 13.2088C3.57136 13.2088 0.791687 10.4291 0.791687 7.0002ZM7.00007 6.33328C7.36826 6.33328 7.66674 6.63176 7.66674 6.99995V9.21671C7.66674 9.5849 7.36826 9.88338 7.00007 9.88338C6.63188 9.88338 6.33341 9.5849 6.33341 9.21671V6.99995C6.33341 6.63176 6.63188 6.33328 7.00007 6.33328ZM7.00007 4.11653C6.63188 4.11653 6.33341 4.415 6.33341 4.78319C6.33341 5.15138 6.63188 5.44986 7.00007 5.44986H7.0059C7.37409 5.44986 7.67257 5.15138 7.67257 4.78319C7.67257 4.415 7.37409 4.11653 7.0059 4.11653H7.00007Z" fill="#2D3440"/>
</g>
<defs>
<clipPath id="clip0_22979_38">
<rect width="14" height="14" fill="white"/>
</clipPath>
</defs>
</svg>
