<svg xmlns="http://www.w3.org/2000/svg" width="48" height="48" fill="none" viewBox="0 0 48 48"><circle cx="24" cy="24" r="23" stroke="#2D3440" stroke-width="2"/><path fill="#2D3440" d="M33.32 26.49c-.4-9.08-8.31-17.87-8.66-18.25h-.05l-.1-.13-.12-.07h-.51L23.71 8h-.05l-.16.11-.1.1h-.04c-.36.41-8.27 9.2-8.69 18.28v1.24c.34 9.84 9.04 12.24 9.11 12.26h.45c.08 0 8.77-2.47 9.1-12.26v-1.24Zm-16.26-3.36a22.23 22.23 0 0 0 6.04 3.93v4.34c-2.21-1.15-5.62-3.2-6.62-5.01.08-1.1.26-2.2.55-3.26h.03Zm1.8-4.87a11.1 11.1 0 0 0 4.24 2.92v3.77c-2.02-.9-3.86-2.2-5.42-3.82.34-.98.74-1.94 1.18-2.87Zm11.5 2.87a17.3 17.3 0 0 1-5.43 3.82v-3.77c1.6-.62 3.03-1.62 4.2-2.92.46.92.86 1.86 1.22 2.83v.04Zm-5.43-1.97v-7.64a43.22 43.22 0 0 1 3.3 4.94 8.28 8.28 0 0 1-3.32 2.66l.02.04Zm0 12.26v-4.36c2.2-.95 4.26-2.27 6.07-3.9.28 1.06.45 2.15.53 3.26-1 1.77-4.4 3.82-6.62 4.97l.02.03Zm-1.8-12.26a8.2 8.2 0 0 1-3.33-2.7 43.26 43.26 0 0 1 3.3-5l.02 7.7ZM16.66 29.4a30.16 30.16 0 0 0 6.43 4.1v4.2c-1.64-.7-3.1-1.84-4.21-3.29a11.52 11.52 0 0 1-2.22-5.01Zm8.24 8.3V33.5a29.68 29.68 0 0 0 6.43-4.1 11.37 11.37 0 0 1-2.2 5.04 10.53 10.53 0 0 1-4.23 3.28Z"/></svg>
